<svg xmlns="http://www.w3.org/2000/svg" viewBox="0 0 520 180" role="img" aria-labelledby="title desc">
  <title id="title">Пътна помощ СИСИ 24/7</title>
  <desc id="desc">Прозрачно лого на Пътна помощ СИСИ 24/7 в жълто, бяло и черно</desc>
  <defs>
    <linearGradient id="yellow" x1="0" x2="1" y1="0" y2="1">
      <stop offset="0%" stop-color="#ffe15a"/>
      <stop offset="100%" stop-color="#f5b800"/>
    </linearGradient>
    <filter id="shadow" x="-20%" y="-20%" width="140%" height="140%">
      <feDropShadow dx="0" dy="6" stdDeviation="6" flood-color="#000000" flood-opacity="0.25"/>
    </filter>
  </defs>
  <g filter="url(#shadow)">
    <path d="M34 118h120l40-52h40l-8 52h32v22H24z" fill="url(#yellow)" stroke="#0b0f14" stroke-width="8" stroke-linejoin="round"/>
    <path d="M66 91c9-24 33-41 60-41 18 0 35 8 47 22h-25c-8-8-18-12-29-12-16 0-31 8-40 21z" fill="#ffffff"/>
    <circle cx="88" cy="142" r="15" fill="#0b0f14"/>
    <circle cx="88" cy="142" r="7" fill="#ffd000"/>
    <circle cx="216" cy="142" r="15" fill="#0b0f14"/>
    <circle cx="216" cy="142" r="7" fill="#ffd000"/>
    <path d="M234 68l38-34 16 16-28 27 15 17-16 14-17-19-17 16-15-16 17-15z" fill="url(#yellow)" stroke="#0b0f14" stroke-width="8" stroke-linejoin="round"/>
    <text x="278" y="92" font-family="'Exo 2', Arial, sans-serif" font-size="92" font-weight="900" letter-spacing="-3" fill="url(#yellow)" stroke="#0b0f14" stroke-width="10" paint-order="stroke">СИСИ</text>
    <text x="277" y="139" font-family="'Exo 2', Arial, sans-serif" font-size="44" font-weight="900" letter-spacing="1.2" fill="#ffffff">ПЪТНА ПОМОЩ</text>
    <text x="474" y="139" font-family="'Exo 2', Arial, sans-serif" font-size="44" font-weight="900" fill="#ffd000">24/7</text>
  </g>
</svg>
